<?xml version="1.0" standalone="no"?>
<!DOCTYPE svg PUBLIC "-//W3C//DTD SVG 20010904//EN"
 "http://www.w3.org/TR/2001/REC-SVG-20010904/DTD/svg10.dtd">
<svg version="1.0" xmlns="http://www.w3.org/2000/svg"
 width="270.000000pt" height="270.000000pt" viewBox="0 0 270.000000 270.000000"
 preserveAspectRatio="xMidYMid meet">
<metadata>
Created by potrace 1.11, written by Peter Selinger 2001-2013
</metadata>
<g transform="translate(0.000000,270.000000) scale(0.100000,-0.100000)"
fill="#000000" stroke="none">
<path d="M1370 2610 c-19 -4 -109 -12 -200 -15 l-165 -7 -100 -56 c-55 -30
-124 -73 -153 -95 -49 -37 -172 -181 -201 -236 -16 -29 -38 -104 -51 -170 -10
-54 -34 -409 -32 -476 0 -22 -4 -55 -9 -73 -7 -22 -7 -66 0 -140 6 -59 13
-163 16 -232 6 -108 9 -128 27 -147 40 -43 81 -26 44 18 -22 26 -24 38 -25
148 -1 65 -6 134 -11 153 -6 18 -10 45 -10 59 0 24 3 26 33 24 43 -4 44 -4 28
-14 -12 -8 -12 -13 0 -38 8 -15 22 -29 31 -31 18 -3 65 53 60 71 -2 5 3 14 10
19 10 6 11 10 0 16 -22 15 27 76 61 77 37 0 68 45 48 69 -13 16 -47 23 -38 9
3 -5 -6 -8 -19 -8 -16 0 -23 4 -19 13 3 8 -3 16 -15 19 -19 5 -29 23 -12 23 8
0 12 44 12 128 0 28 5 52 10 52 5 0 7 14 3 31 -4 21 -1 34 7 39 11 7 11 16 2
47 -7 21 -10 47 -8 58 3 11 5 26 5 33 1 6 5 12 11 12 15 0 50 33 44 42 -3 4
-1 8 5 8 6 0 35 16 65 35 30 19 62 35 71 35 8 0 15 5 15 12 0 6 9 3 21 -8 17
-15 22 -16 29 -4 8 12 10 12 15 -2 11 -28 58 -32 101 -9 20 11 40 18 44 16 4
-3 15 4 25 15 10 11 27 20 37 20 10 0 35 7 54 15 32 13 37 13 51 -1 10 -9 25
-13 38 -10 15 4 28 -1 40 -14 19 -20 45 -27 45 -11 0 5 9 11 20 14 11 3 20 2
20 -3 0 -13 54 -19 68 -8 16 13 40 -5 44 -35 3 -20 9 -21 98 -21 70 -1 103 -5
120 -17 14 -9 42 -19 63 -23 20 -4 37 -12 37 -17 0 -6 10 -19 23 -29 18 -15
20 -21 10 -31 -17 -17 -16 -39 1 -58 19 -21 29 -82 17 -100 -6 -10 -32 -15
-83 -17 -40 -1 -73 -3 -73 -4 0 -3 -78 -11 -128 -13 -23 -1 -37 -7 -37 -15 0
-7 -4 -11 -10 -7 -5 3 -17 1 -27 -4 -10 -5 -31 -12 -46 -16 -15 -3 -25 -10
-22 -15 3 -6 -1 -10 -9 -10 -9 0 -17 -6 -17 -12 -1 -7 -3 -22 -5 -33 -2 -11
-4 -30 -6 -42 -1 -13 -6 -23 -10 -23 -14 0 -8 -47 7 -60 12 -10 13 -16 3 -27
-7 -9 -8 -17 -2 -21 5 -4 9 -23 9 -42 0 -19 6 -40 13 -45 8 -7 14 -30 14 -60
0 -31 5 -57 15 -67 13 -14 13 -20 3 -33 -8 -10 -9 -15 -1 -15 17 0 24 -2 48
-11 25 -9 53 -2 53 13 0 16 -27 38 -46 38 -14 0 -15 3 -6 12 17 17 15 31 -3
24 -18 -6 -20 5 -4 21 9 9 8 16 -4 27 -9 9 -20 16 -26 16 -6 0 -11 5 -11 10 0
6 4 10 9 10 5 0 9 11 9 24 0 29 30 61 57 60 48 -2 55 -5 55 -19 0 -8 4 -15 10
-15 5 0 20 -12 34 -26 19 -21 30 -25 50 -20 21 5 24 3 19 -11 -6 -16 -5 -16
10 -4 15 12 17 11 17 -3 0 -9 6 -16 13 -16 7 0 18 -9 25 -21 l13 -21 23 21
c12 12 27 21 33 21 6 0 14 6 16 13 3 7 6 5 6 -5 1 -20 21 -25 21 -6 0 30 21
-12 22 -44 1 -33 -32 -85 -46 -71 -3 3 -8 -1 -12 -10 -7 -19 -74 -40 -98 -31
-12 4 -16 0 -16 -15 0 -12 -5 -21 -11 -21 -5 0 -8 4 -5 9 8 12 -21 34 -34 26
-15 -9 -12 -29 8 -51 10 -10 16 -26 14 -35 -1 -9 4 -22 13 -29 8 -7 15 -21 15
-32 0 -11 8 -22 18 -25 10 -2 26 -18 36 -34 16 -27 16 -32 3 -52 -8 -12 -36
-30 -62 -40 -43 -15 -50 -16 -65 -2 -12 11 -19 12 -28 3 -9 -9 -16 -8 -30 5
-10 9 -29 17 -42 17 -13 0 -21 3 -17 6 3 3 -4 23 -17 43 -31 49 -36 67 -24 79
6 6 5 17 -4 31 -11 17 -11 25 0 42 17 27 14 29 -49 43 -46 11 -57 10 -88 -6
-20 -11 -46 -16 -58 -13 -13 3 -23 1 -23 -5 0 -14 -26 -13 -51 3 -17 10 -23 9
-26 -1 -3 -7 -11 -19 -19 -26 -8 -8 -14 -21 -14 -30 0 -8 -4 -17 -9 -20 -17
-11 -9 -58 10 -63 11 -3 19 -9 19 -14 0 -5 5 -9 10 -9 20 0 37 -24 32 -45 -3
-20 13 -41 63 -81 11 -8 15 -13 9 -10 -7 3 -17 -1 -24 -9 -12 -14 -43 -15 -56
-2 -12 12 -24 8 -24 -8 0 -8 -6 -15 -14 -15 -9 0 -12 7 -9 20 3 11 0 20 -6 20
-6 0 -11 -5 -11 -11 0 -6 -7 -8 -17 -5 -9 4 -20 1 -24 -6 -6 -9 -14 -6 -29 12
-21 24 -22 25 -36 6 -12 -17 -14 -17 -14 -3 0 43 -102 42 -149 -2 -36 -34 -47
-83 -23 -104 12 -11 22 -13 32 -7 8 5 25 7 38 3 12 -3 28 0 36 6 21 17 103 30
115 18 6 -6 11 -7 11 -1 0 5 10 9 23 10 140 6 139 6 197 0 17 -2 41 -4 55 -5
17 -1 23 -5 19 -16 -4 -9 0 -15 10 -15 9 0 16 -8 16 -20 0 -11 -7 -20 -15 -20
-8 0 -15 -4 -15 -9 0 -6 -21 -13 -47 -17 -27 -3 -54 -11 -60 -16 -9 -7 -18 -7
-28 2 -19 15 -45 -8 -45 -40 0 -18 4 -21 21 -17 16 4 18 3 9 -7 -16 -20 13
-39 60 -39 22 0 40 -4 40 -8 0 -5 18 -9 40 -9 29 0 40 -4 40 -15 0 -8 7 -15
14 -15 8 0 27 -11 42 -25 15 -14 34 -25 42 -25 10 0 13 -7 8 -22 -3 -13 -6
-29 -6 -35 0 -7 -6 -13 -12 -13 -7 0 -21 -18 -32 -39 -14 -29 -23 -37 -37 -34
-10 3 -19 1 -19 -5 0 -22 -36 -17 -55 7 -11 14 -19 28 -18 31 1 3 -3 11 -9 17
-19 23 -46 14 -69 -23 -14 -24 -27 -34 -39 -31 -9 2 -28 -1 -41 -8 -20 -11
-29 -10 -59 8 -36 20 -78 18 -65 -3 3 -5 1 -10 -5 -10 -7 0 -14 9 -17 20 -3
12 -13 19 -26 17 -19 -2 -54 44 -73 96 -3 9 -10 17 -14 17 -5 0 -11 19 -15 43
-4 23 -12 50 -17 60 -6 12 -6 23 1 31 7 9 6 19 -5 34 -29 42 -60 22 -66 -43
-2 -34 1 -41 22 -52 14 -7 19 -13 13 -13 -7 0 -13 -4 -13 -10 0 -5 7 -10 15
-10 8 0 15 5 15 12 0 6 3 8 6 5 4 -4 1 -14 -6 -23 -9 -10 -10 -18 -4 -22 6 -4
13 -15 17 -25 5 -14 3 -18 -11 -15 -9 2 -16 10 -15 19 2 8 -13 23 -32 33 -20
11 -38 30 -41 43 -4 13 -10 23 -15 23 -5 0 -9 9 -9 20 0 25 -46 164 -71 212
-11 21 -26 61 -33 90 -17 61 -64 178 -77 193 -6 6 -15 3 -26 -8 -16 -16 -16
-18 -1 -29 9 -7 33 -65 54 -128 20 -63 45 -137 54 -165 49 -135 62 -193 67
-310 6 -118 5 -121 -19 -150 -31 -37 -68 -151 -68 -211 l0 -44 649 0 649 0
-18 38 c-11 21 -24 61 -31 88 -6 27 -20 63 -31 81 -10 17 -21 47 -23 66 -3 19
-9 47 -15 63 -13 34 -5 145 15 194 21 51 95 378 95 418 0 18 5 42 10 53 15 28
47 24 54 -6 7 -26 49 -50 72 -41 9 3 10 15 3 47 -7 29 -7 44 1 49 7 5 9 32 5
81 -5 52 -1 99 11 159 20 101 21 140 4 243 -11 65 -11 90 0 145 22 106 16 154
-39 346 -56 192 -62 208 -127 306 -59 90 -126 142 -282 218 -128 62 -136 65
-220 68 -48 2 -103 -1 -122 -6z m414 -963 c-5 -15 33 -17 54 -3 19 12 27 -1
11 -16 -19 -17 -68 -16 -79 2 -14 21 -12 30 5 30 8 0 12 -6 9 -13z"/>
<path d="M960 1780 c0 -3 -20 -5 -44 -5 -44 0 -116 -38 -116 -61 0 -7 -7 -14
-15 -18 -15 -5 -17 -16 -15 -90 0 -42 6 -56 21 -56 6 0 7 5 3 11 -4 8 0 9 15
4 16 -5 20 -3 15 9 -4 9 -1 16 6 16 7 0 10 6 7 14 -6 16 40 69 56 63 7 -2 17
2 23 8 6 6 31 11 55 10 37 -1 45 -5 59 -31 11 -19 14 -37 9 -51 -9 -24 -42
-46 -53 -35 -4 4 -12 -1 -17 -10 -7 -13 -19 -16 -50 -12 -33 4 -43 1 -59 -18
-31 -37 -24 -52 20 -50 3 0 11 -6 18 -14 7 -8 8 -14 2 -14 -5 0 -10 -7 -10
-16 0 -11 6 -15 20 -11 11 3 18 1 14 -4 -3 -5 -2 -9 3 -10 4 0 16 -2 26 -4 9
-2 17 2 17 8 0 7 5 6 11 -3 8 -11 12 -12 15 -3 4 9 10 10 24 1 14 -9 22 -9 34
1 11 9 16 10 16 2 0 -6 5 -11 10 -11 14 0 70 55 70 68 0 16 61 57 88 59 46 4
66 39 37 63 -10 9 -12 16 -6 24 12 14 3 56 -11 56 -5 0 -8 8 -6 17 2 11 -6 22
-19 28 -13 5 -23 15 -23 21 0 7 -12 20 -27 29 -23 15 -33 16 -67 7 -25 -6 -43
-7 -47 -1 -6 10 -109 18 -109 9z"/>
<path d="M1267 1523 c-12 -11 -7 -33 7 -33 12 0 26 20 26 36 0 7 -26 5 -33 -3z"/>
<path d="M1260 1449 c0 -24 23 -21 28 4 2 10 -3 17 -12 17 -10 0 -16 -9 -16
-21z"/>
<path d="M1506 1201 c-4 -7 -5 -15 -2 -18 9 -9 19 4 14 18 -4 11 -6 11 -12 0z"/>
<path d="M1666 1201 c-3 -5 1 -11 9 -15 8 -3 15 -1 15 4 0 13 -18 22 -24 11z"/>
<path d="M772 979 c2 -7 10 -15 17 -17 8 -3 12 1 9 9 -2 7 -10 15 -17 17 -8 3
-12 -1 -9 -9z"/>
<path d="M794 924 c3 -9 6 -18 6 -20 0 -3 5 -2 10 1 16 10 12 35 -6 35 -11 0
-14 -5 -10 -16z"/>
<path d="M791 874 c0 -11 3 -14 6 -6 3 7 2 16 -1 19 -3 4 -6 -2 -5 -13z"/>
<path d="M815 819 c-10 -15 3 -25 16 -12 7 7 7 13 1 17 -6 3 -14 1 -17 -5z"/>
<path d="M890 640 c0 -5 5 -10 10 -10 6 0 10 5 10 10 0 6 -4 10 -10 10 -5 0
-10 -4 -10 -10z"/>
</g>
</svg>
